<svg width="636" height="211" viewBox="0 0 636 211" fill="none" xmlns="http://www.w3.org/2000/svg">
<circle opacity="0.5" cx="9" cy="9" r="9" transform="matrix(1 0 0 -1 496 54.0002)" fill="#4666A9"/>
<circle cx="9" cy="9" r="9" transform="matrix(1 0 0 -1 496 90.0002)" fill="#4666A9"/>
<circle cx="9" cy="9" r="9" transform="matrix(1 0 0 -1 535 106.5)" fill="#4666A9"/>
<circle cx="9" cy="9" r="9" transform="matrix(1 0 0 -1 535 145)" fill="#4666A9"/>
<circle opacity="0.5" cx="583" cy="97.5002" r="12" fill="#4666A9"/>
<circle opacity="0.5" cx="583" cy="136" r="12" fill="#4666A9"/>
<circle opacity="0.5" cx="9" cy="9" r="9" transform="matrix(1 0 0 -1 535 183)" fill="#4666A9"/>
<circle opacity="0.5" cx="626" cy="136" r="10" fill="#4666A9"/>
<circle cx="133" cy="9.00024" r="9" transform="rotate(180 133 9.00024)" fill="#4666A9"/>
<circle cx="133" cy="45.0002" r="9" transform="rotate(180 133 45.0002)" fill="#4666A9"/>
<circle cx="133" cy="81.0002" r="9" transform="rotate(180 133 81.0002)" fill="#4666A9"/>
<circle opacity="0.5" cx="94" cy="101" r="9" transform="rotate(180 94 101)" fill="#4666A9"/>
<circle opacity="0.5" cx="94" cy="136" r="9" transform="rotate(180 94 136)" fill="#4666A9"/>
<circle cx="94" cy="202" r="9" transform="rotate(180 94 202)" fill="#4666A9"/>
<circle opacity="0.5" cx="94" cy="169" r="9" transform="rotate(180 94 169)" fill="#4666A9"/>
<circle cx="12" cy="12" r="12" transform="matrix(-1 0 0 1 106 46.0002)" fill="#4666A9"/>
<circle opacity="0.5" cx="12" cy="12" r="12" transform="matrix(-1 0 0 1 67 85.0002)" fill="#4666A9"/>
<circle opacity="0.5" cx="12" cy="12" r="12" transform="matrix(-1 0 0 1 67 124)" fill="#4666A9"/>
<circle cx="10" cy="136" r="10" fill="#4666A9"/>
</svg>
